# xmcd
#
# Track frame offsets:
#       150
#       18914
#       43473
#       59200
#       74900
#       96506
#       108708
#       121663
#
# Disc length: 1786 seconds
#
# Revision: 1
# Processed by: cddbd v1.5.1PL0 Copyright (c) Steve Scherf et al.
# Submitted via: MusiCat 1.1
#
DISCID=8006f808
DTITLE=Various Artist - Gospels Greatest Legends
DYEAR=2003
DGENRE=
TTITLE0=Jordan River - Shirley Ceasar
TTITLE1=Lord, Do It - Rev. James Cleveland
TTITLE2=Jesus Is Just Alright - Rev. Milton Bruson
TTITLE3=Sail Away - Albertina Walker
TTITLE4=Happy With Jesus Alone - The Swan Silvertones
TTITLE5=Will The Circle Be Unbroken
TTITLE6=Something Got A Hold On Me - Five Blind Boys Of Alabama
TTITLE7=Jesus Will Answer Prayer - The Dixie Hummingbirds
EXTD=\n520\n
EXTT0=
EXTT1=
EXTT2=
EXTT3=
EXTT4=
EXTT5=
EXTT6=
EXTT7=
PLAYORDER=
